<svg width="10" height="17" viewBox="0 0 10 17" fill="none" xmlns="http://www.w3.org/2000/svg">
<path d="M8.5 0.983032H1.5C0.672848 0.983032 0 1.65552 0 2.48223V15.4753C0 16.302 0.672848 16.9745 1.5 16.9745H8.5C9.32715 16.9745 10 16.302 10 15.4753V2.48223C10 1.65552 9.32715 0.983032 8.5 0.983032ZM1.5 1.9825H8.5C8.77588 1.9825 9 2.2065 9 2.48223V12.9766H1V2.48223C1 2.2065 1.22412 1.9825 1.5 1.9825ZM8.5 15.9751H1.5C1.22412 15.9751 1 15.7511 1 15.4753V13.9761H9V15.4753C9 15.7511 8.77588 15.9751 8.5 15.9751Z" fill="#757575"/>
<path d="M2.35355 14.7148C2.54882 14.8971 2.54882 15.1927 2.35355 15.3751C2.15828 15.5574 1.84172 15.5574 1.64645 15.3751C1.45118 15.1927 1.45118 14.8971 1.64645 14.7148C1.84172 14.5324 2.15828 14.5324 2.35355 14.7148Z" fill="#757575"/>
</svg>
